<?xml version="1.0" encoding="UTF-8" standalone="no"?>
<!-- Created with Inkscape (http://www.inkscape.org/) -->

<svg
   xmlns:dc="http://purl.org/dc/elements/1.1/"
   xmlns:cc="http://creativecommons.org/ns#"
   xmlns:rdf="http://www.w3.org/1999/02/22-rdf-syntax-ns#"
   xmlns:svg="http://www.w3.org/2000/svg"
   xmlns="http://www.w3.org/2000/svg"
   xmlns:sodipodi="http://sodipodi.sourceforge.net/DTD/sodipodi-0.dtd"
   xmlns:inkscape="http://www.inkscape.org/namespaces/inkscape"
   width="41.488899mm"
   height="43.123333mm"
   viewBox="0 0 41.488899 43.123333"
   version="1.1"
   id="svg8"
   inkscape:version="0.92.5 (2060ec1f9f, 2020-04-08)"
   sodipodi:docname="Logo.svg">
  <defs
     id="defs2">
    <linearGradient
       gradientTransform="translate(365.57,152.44)"
       gradientUnits="userSpaceOnUse"
       x2="0"
       y2="365.20001"
       y1="392.35999"
       id="a">
      <stop
         id="stop4518"
         stop-opacity="0"
         stop-color="#ffffff" />
      <stop
         id="stop4520"
         stop-opacity=".2"
         stop-color="#ffffff"
         offset="1" />
    </linearGradient>
  </defs>
  <sodipodi:namedview
     id="base"
     pagecolor="#ffffff"
     bordercolor="#666666"
     borderopacity="1.0"
     inkscape:pageopacity="0.0"
     inkscape:pageshadow="2"
     inkscape:zoom="3.959798"
     inkscape:cx="61.552853"
     inkscape:cy="68.475342"
     inkscape:document-units="mm"
     inkscape:current-layer="layer1"
     showgrid="true"
     fit-margin-top="0"
     fit-margin-left="0"
     fit-margin-right="0"
     fit-margin-bottom="0"
     inkscape:window-width="1920"
     inkscape:window-height="1006"
     inkscape:window-x="0"
     inkscape:window-y="0"
     inkscape:window-maximized="1">
    <inkscape:grid
       type="xygrid"
       id="grid4564"
       originx="-6.7466665"
       originy="-248.84042" />
  </sodipodi:namedview>
  <metadata
     id="metadata5">
    <rdf:RDF>
      <cc:Work
         rdf:about="">
        <dc:format>image/svg+xml</dc:format>
        <dc:type
           rdf:resource="http://purl.org/dc/dcmitype/StillImage" />
        <dc:title></dc:title>
      </cc:Work>
    </rdf:RDF>
  </metadata>
  <g
     inkscape:label="Ebene 1"
     inkscape:groupmode="layer"
     id="layer1"
     transform="translate(-6.7466667,-5.0362516)">
    <g
       id="g4543"
       transform="matrix(1.2702695,0,0,1.2702695,-474.56926,-652.70928)">
      <g
         id="g4531"
         style="color:#000000;color-interpolation:sRGB;color-interpolation-filters:linearRGB;color-rendering:auto;image-rendering:auto;shape-rendering:auto;text-rendering:auto">
        <path
           id="path4525"
           d="m 389.57,517.8 v 28 h 22 v -28 h -14 z"
           inkscape:connector-curvature="0"
           style="fill:#da2c2c" />
        <rect
           id="rect4527"
           height="1"
           width="22"
           y="544.79999"
           x="389.57001"
           style="opacity:0.25" />
        <rect
           id="rect4529"
           height="1"
           width="22"
           y="517.79999"
           x="389.57001"
           style="opacity:0.5;fill:#ffffff" />
      </g>
      <rect
         id="rect4533"
         height="26"
         y="518.79999"
         x="392.57001"
         width="1"
         style="fill:#ffffff;fill-opacity:0.25200004" />
      <g
         id="g4541"
         style="color:#000000;color-interpolation:sRGB;color-interpolation-filters:linearRGB;color-rendering:auto;image-rendering:auto;shape-rendering:auto;text-rendering:auto">
        <rect
           id="rect4535"
           height="26"
           width="1"
           y="518.79999"
           x="393.57001"
           style="fill-opacity:0.08299997" />
        <path
           id="path4537"
           d="m 398.43,525.8 c -0.162,0.01 -0.336,0 -0.527,0.132 -1.705,0.734 -0.561,2.747 1.612,4.279 0.013,-0.289 0.133,-0.917 0.13,-1.194 -1.854,-1.271 -2.939,-2.509 -1.757,-2.999 1.246,-0.517 1.633,0.895 1.655,2.944 0.116,0.12 0.92,0.654 1.042,0.739 -0.045,-1.869 -1.039,-3.777 -1.993,-3.885 -0.051,-0.01 -0.107,-0.01 -0.161,-0.01 m 1.736,3.252 -0.388,-0.151 -0.322,0.217 -0.065,0.682 0.406,0.312 0.169,0.226 c 1.251,0.83 2.317,1.469 3.718,1.997 l 0.874,0.13 h 0.575 c 0.53,-0.313 0.214,-0.433 2.141,-0.673 l -2.171,0.168 c -1.675,-0.649 -3.385,-1.582 -4.94,-2.6 m 3.822,2.72 c 0.251,0 2.211,-0.17 2.99,-0.242 0.772,-0.12 1.719,-0.156 1.54,0.746 0.204,-0.481 -0.261,-1.298 -0.922,-1.442 -1.023,-0.229 -2.646,0.398 -3.229,0.591 m 0.94,0.25 c -0.304,0.12 -0.999,0.207 -1.327,0.316 0.465,0.241 2.802,1.103 3.766,0.923 0.154,0 0.805,-0.468 0.821,-0.805 -0.05,0.613 -2.906,0.156 -3.26,-0.445 m 0.635,0.011 c -0.25,-0.12 -1.422,-0.114 -1.681,-0.211 -1.468,0.513 -3.442,1.719 -4.855,2.532 l -0.409,0.12 c -0.079,0.561 -0.425,0.755 -0.74,1.118 l 0.478,0.481 0.374,-0.613 c 1.654,-0.998 4.924,-2.611 6.832,-3.386 m -6.832,3.386 c -0.202,0.12 -0.395,0.241 -0.578,0.361 -0.424,1.204 -0.919,2.01 -1.391,1.98 0.729,0.349 2.301,-1.37 2.83,-2.986 m -2.83,2.986 c -1.113,-0.661 1.243,-1.867 1.77,-2.217 0.119,-0.337 -0.206,-0.895 -0.1,-1.292 -1.661,1.034 -2.643,2.531 -2.086,3.24 0.134,0.168 0.276,0.253 0.417,0.265 m 1.617,-2.52 c 0.077,-0.31 1.103,-1.015 1.289,-1.123 0.248,-1.954 0.26,-2.147 0.471,-3.666 -0.126,-0.12 -0.902,-0.725 -1.022,-0.809 -0.149,1.624 -0.429,3.824 -0.826,5.293"
           inkscape:connector-curvature="0"
           style="opacity:0.8;fill:#ffffff" />
        <path
           id="path4539"
           d="m 389.57,517.8 v 28 h 22 v -28 h -17 z"
           inkscape:connector-curvature="0"
           style="fill:url(#a)" />
      </g>
    </g>
    <path
       style="fill:#ffffff;fill-opacity:1;stroke:#000000;stroke-width:0.26499999;stroke-linecap:butt;stroke-linejoin:bevel;stroke-miterlimit:4;stroke-dasharray:none;stroke-opacity:1"
       d="m 6.8791667,36.120833 v 11.90625 H 28.045834 v -11.90625 z"
       id="path4566"
       inkscape:connector-curvature="0" />
    <circle
       style="fill:#ffffff;fill-opacity:1;stroke:#000000;stroke-width:0.26499999;stroke-linejoin:bevel;stroke-miterlimit:4;stroke-dasharray:none;stroke-opacity:1"
       id="path4572"
       cx="22.754169"
       cy="30.356695"
       r="3.96875" />
    <path
       style="fill:#ffffff;fill-opacity:1;stroke:#000000;stroke-width:0.26499999;stroke-linecap:butt;stroke-linejoin:bevel;stroke-miterlimit:4;stroke-dasharray:none;stroke-opacity:1"
       d="M 28.045834,36.120832 H 6.8791668 L 13.493751,29.50625 h 21.166666 l -6.614583,6.614583"
       id="path4568"
       inkscape:connector-curvature="0"
       sodipodi:nodetypes="ccccc" />
    <path
       style="fill:#ffffff;fill-opacity:1;stroke:#000000;stroke-width:0.26499999;stroke-linecap:butt;stroke-linejoin:bevel;stroke-miterlimit:4;stroke-dasharray:none;stroke-opacity:1"
       d="m 34.660418,29.506249 -6.614584,6.614583 v 11.90625 l 6.614584,-6.614583 -10e-7,-11.906249"
       id="path4570"
       inkscape:connector-curvature="0"
       sodipodi:nodetypes="ccccc" />
    <rect
       style="fill:#ffffff;fill-opacity:1;stroke:none;stroke-width:0.26499999;stroke-linejoin:bevel;stroke-miterlimit:4;stroke-dasharray:none;stroke-opacity:1"
       id="rect4574"
       width="7.4083333"
       height="0.52916664"
       x="19.050001"
       y="29.241663" />
  </g>
</svg>
